<svg xmlns="http://www.w3.org/2000/svg" xmlns:xlink="http://www.w3.org/1999/xlink" version="1.1" x="0px" y="0px" viewBox="15 15 60 60" enable-background="new 0 0 60 60"  xml:space="preserve" width="48px" height="48px">
    <g fill="#067eff"><path d="M38.5,60.3c0.3,0.3,0.7,0.5,1.2,0.5c0.4,0,0.9-0.2,1.2-0.5l4.6-4.8c0.6-0.7,0.6-1.7,0-2.3l-4.6-4.8c-0.6-0.7-1.7-0.7-2.4-0.1c-0.7,0.6-0.7,1.7-0.1,2.4l1.8,1.9h-7.6c-2.4,0-4.3-1.9-4.3-4.3c0-2.4,1.9-4.3,4.3-4.3h1.5c0.9,0,1.7-0.8,1.7-1.7s-0.8-1.7-1.7-1.7h-1.5c-4.2,0-7.7,3.4-7.7,7.7c0,4.2,3.4,7.7,7.7,7.7h7.6l-1.8,1.9C37.8,58.6,37.9,59.7,38.5,60.3z" stroke="#067eff"/>
    <path d="M58.7,40.6c-0.9,0-1.7,0.8-1.7,1.7s0.8,1.7,1.7,1.7c2.4,0,4.3,1.9,4.3,4.3c0,2.4-1.9,4.3-4.3,4.3h-9.1c-0.9,0-1.7,0.8-1.7,1.7s0.8,1.7,1.7,1.7h9.1c4.2,0,7.7-3.4,7.7-7.7C66.4,44.1,63,40.6,58.7,40.6z" stroke="#067eff"/>
    <path d="M39.7,44.5c0.9,0,1.7-0.8,1.7-1.7V27.2l10.2,3.5v17.7c0,0.9,0.8,1.7,1.7,1.7s1.7-0.8,1.7-1.7V29.4c0-0.7-0.5-1.4-1.1-1.6l-13.6-4.6c-0.5-0.2-1.1-0.1-1.5,0.2c-0.4,0.3-0.7,0.8-0.7,1.4v17.9C38,43.7,38.8,44.5,39.7,44.5z" stroke="#067eff"/>
    <path d="M53.3,58.7c-0.9,0-1.7,0.8-1.7,1.7V63l-12.1,1.4c-0.9,0.1-1.6,0.9-1.5,1.9c0.1,0.9,0.8,1.5,1.7,1.5c0.1,0,0.1,0,0.2,0l13.6-1.6c0.9-0.1,1.5-0.8,1.5-1.7v-4.1C55,59.5,54.2,58.7,53.3,58.7z" stroke="#067eff"/>
    </g>
</svg>
